<svg width="846" height="419" viewBox="0 0 846 419" fill="none" xmlns="http://www.w3.org/2000/svg">
<g clip-path="url(#clip0_1750_2308)">
<path d="M485.092 410.039C479.855 410.036 474.835 407.952 471.134 404.248C467.433 400.543 465.354 395.52 465.354 390.283C465.354 385.046 467.433 380.023 471.134 376.318C474.835 372.613 479.855 370.53 485.092 370.527H778.476C777.001 367.817 774.823 365.555 772.171 363.978C769.52 362.402 766.492 361.569 763.408 361.566H180.236C172.628 361.575 165.334 364.604 159.958 369.989C154.581 375.373 151.562 382.673 151.563 390.283C151.566 397.892 154.587 405.188 159.963 410.572C165.339 415.955 172.63 418.986 180.236 418.999H763.408C766.492 418.997 769.519 418.164 772.171 416.587C774.823 415.011 777.001 412.749 778.476 410.039L485.092 410.039Z" fill="#CCCCCC"/>
<path d="M778.868 381.413H499.927C499.5 381.412 499.091 381.242 498.789 380.939C498.488 380.637 498.318 380.227 498.318 379.8C498.318 379.373 498.488 378.964 498.789 378.661C499.091 378.359 499.5 378.189 499.927 378.188H778.868C779.295 378.189 779.704 378.359 780.005 378.661C780.307 378.964 780.476 379.373 780.476 379.8C780.476 380.227 780.307 380.637 780.005 380.939C779.704 381.242 779.295 381.412 778.868 381.413Z" fill="#CCCCCC"/>
<path d="M778.867 391.896H499.927C499.499 391.896 499.089 391.727 498.787 391.424C498.484 391.122 498.314 390.711 498.314 390.284C498.314 389.856 498.484 389.446 498.787 389.143C499.089 388.841 499.499 388.671 499.927 388.671H778.867C779.295 388.671 779.705 388.841 780.008 389.143C780.31 389.446 780.48 389.856 780.48 390.284C780.48 390.711 780.31 391.122 780.008 391.424C779.705 391.727 779.295 391.896 778.867 391.896Z" fill="#CCCCCC"/>
<path d="M778.868 402.379H499.927C499.5 402.378 499.091 402.207 498.789 401.905C498.488 401.603 498.318 401.193 498.318 400.766C498.318 400.339 498.488 399.929 498.789 399.627C499.091 399.325 499.5 399.154 499.927 399.153H778.868C779.295 399.154 779.704 399.325 780.005 399.627C780.307 399.929 780.476 400.339 780.476 400.766C780.476 401.193 780.307 401.603 780.005 401.905C779.704 402.207 779.295 402.378 778.868 402.379Z" fill="#CCCCCC"/>
<path d="M409.31 354.4C404.074 354.396 399.054 352.313 395.353 348.608C391.651 344.904 389.572 339.881 389.572 334.643C389.572 329.406 391.651 324.383 395.353 320.678C399.054 316.974 404.074 314.891 409.31 314.887H702.695C701.22 312.178 699.042 309.916 696.39 308.339C693.739 306.762 690.711 305.929 687.627 305.927H104.456C96.8473 305.935 89.5535 308.965 84.1769 314.349C78.8002 319.734 75.7805 327.033 75.7813 334.643C75.7852 342.252 78.8064 349.549 84.182 354.932C89.5577 360.316 96.8488 363.347 104.456 363.36H687.627C690.711 363.358 693.739 362.524 696.39 360.948C699.042 359.371 701.22 357.109 702.695 354.4L409.31 354.4Z" fill="#FF6F00"/>
<path d="M703.084 325.773H424.144C423.717 325.772 423.308 325.602 423.006 325.3C422.705 324.997 422.535 324.588 422.535 324.161C422.535 323.734 422.705 323.324 423.006 323.022C423.308 322.719 423.717 322.549 424.144 322.548H703.084C703.512 322.548 703.922 322.718 704.225 323.02C704.527 323.323 704.697 323.733 704.697 324.161C704.697 324.588 704.527 324.998 704.225 325.301C703.922 325.603 703.512 325.773 703.084 325.773Z" fill="#CCCCCC"/>
<path d="M703.084 336.256H424.144C423.716 336.256 423.306 336.086 423.004 335.783C422.701 335.481 422.531 335.071 422.531 334.643C422.531 334.215 422.701 333.805 423.004 333.503C423.306 333.2 423.716 333.03 424.144 333.03H703.084C703.512 333.03 703.922 333.2 704.224 333.503C704.527 333.805 704.697 334.215 704.697 334.643C704.697 335.071 704.527 335.481 704.224 335.783C703.922 336.086 703.512 336.256 703.084 336.256Z" fill="#CCCCCC"/>
<path d="M703.084 346.739H424.144C423.717 346.738 423.308 346.568 423.006 346.265C422.705 345.963 422.535 345.553 422.535 345.126C422.535 344.699 422.705 344.29 423.006 343.987C423.308 343.685 423.717 343.515 424.144 343.514H703.084C703.296 343.513 703.507 343.554 703.703 343.635C703.899 343.716 704.077 343.835 704.227 343.985C704.377 344.134 704.496 344.312 704.578 344.508C704.659 344.704 704.701 344.914 704.701 345.126C704.701 345.339 704.659 345.549 704.578 345.745C704.496 345.94 704.377 346.118 704.227 346.268C704.077 346.418 703.899 346.537 703.703 346.618C703.507 346.698 703.296 346.74 703.084 346.739Z" fill="#CCCCCC"/>
<path d="M333.529 296.904C328.293 296.9 323.273 294.817 319.571 291.112C315.87 287.408 313.791 282.385 313.791 277.147C313.791 271.91 315.87 266.887 319.571 263.182C323.273 259.478 328.293 257.395 333.529 257.391H626.914C625.438 254.682 623.26 252.42 620.609 250.843C617.957 249.266 614.93 248.433 611.846 248.431H28.674C21.0656 248.439 13.7718 251.469 8.39521 256.853C3.01862 262.238 -0.000946634 269.537 2.22615e-07 277.147C0.00384955 284.756 3.02495 292.052 8.40051 297.436C13.7761 302.819 21.0671 305.85 28.674 305.864H611.846C614.93 305.861 617.957 305.028 620.609 303.451C623.26 301.875 625.438 299.613 626.914 296.903L333.529 296.904Z" fill="#CCCCCC"/>
<path d="M627.303 268.276H348.362C347.935 268.275 347.526 268.105 347.225 267.803C346.923 267.5 346.754 267.091 346.754 266.664C346.754 266.236 346.923 265.827 347.225 265.525C347.526 265.222 347.935 265.052 348.362 265.051H627.303C627.731 265.051 628.141 265.221 628.443 265.523C628.746 265.826 628.915 266.236 628.915 266.664C628.915 267.091 628.746 267.502 628.443 267.804C628.141 268.106 627.731 268.276 627.303 268.276Z" fill="#CCCCCC"/>
<path d="M627.303 278.76H348.362C348.151 278.76 347.941 278.718 347.745 278.637C347.55 278.556 347.372 278.437 347.222 278.287C347.073 278.138 346.954 277.96 346.873 277.764C346.792 277.568 346.75 277.359 346.75 277.147C346.75 276.935 346.792 276.725 346.873 276.53C346.954 276.334 347.073 276.156 347.222 276.007C347.372 275.857 347.55 275.738 347.745 275.657C347.941 275.576 348.151 275.534 348.362 275.534H627.303C627.515 275.534 627.724 275.576 627.92 275.657C628.116 275.738 628.293 275.857 628.443 276.007C628.593 276.156 628.712 276.334 628.793 276.53C628.874 276.725 628.915 276.935 628.915 277.147C628.915 277.359 628.874 277.568 628.793 277.764C628.712 277.96 628.593 278.138 628.443 278.287C628.293 278.437 628.116 278.556 627.92 278.637C627.724 278.718 627.515 278.76 627.303 278.76Z" fill="#CCCCCC"/>
<path d="M627.303 289.242H348.362C347.935 289.242 347.525 289.072 347.222 288.77C346.92 288.467 346.75 288.057 346.75 287.629C346.75 287.202 346.92 286.791 347.222 286.489C347.525 286.186 347.935 286.017 348.362 286.017H627.303C627.515 286.017 627.724 286.058 627.92 286.139C628.116 286.22 628.293 286.339 628.443 286.489C628.593 286.639 628.712 286.816 628.793 287.012C628.874 287.208 628.915 287.418 628.915 287.629C628.915 287.841 628.874 288.051 628.793 288.247C628.712 288.442 628.593 288.62 628.443 288.77C628.293 288.919 628.116 289.038 627.92 289.119C627.724 289.2 627.515 289.242 627.303 289.242Z" fill="#CCCCCC"/>
<path d="M633.745 174.247C632.215 174.244 630.743 173.66 629.627 172.613C628.511 171.566 627.834 170.134 627.734 168.607L626.839 154.936C626.735 153.339 627.268 151.766 628.323 150.563C629.378 149.36 630.868 148.625 632.464 148.521L739.548 141.506C741.236 141.395 742.929 141.619 744.531 142.163C746.133 142.706 747.612 143.561 748.883 144.676C750.155 145.792 751.195 147.147 751.943 148.665C752.691 150.182 753.133 151.832 753.243 153.521C753.354 155.209 753.131 156.903 752.587 158.505C752.043 160.107 751.189 161.586 750.074 162.858C748.958 164.13 747.603 165.17 746.086 165.919C744.569 166.667 742.919 167.109 741.231 167.219L634.148 174.233C634.013 174.242 633.879 174.246 633.745 174.247Z" fill="#FF6F00"/>
<path d="M654.861 176.009C653.301 176.006 651.803 175.4 650.68 174.317C649.557 173.234 648.896 171.759 648.836 170.2L648.073 149.78C648.043 148.988 648.17 148.198 648.445 147.456C648.721 146.713 649.14 146.031 649.679 145.451C650.218 144.87 650.866 144.401 651.586 144.071C652.306 143.74 653.084 143.555 653.876 143.526L741.933 140.234C743.532 140.174 745.089 140.752 746.262 141.84C747.435 142.929 748.127 144.439 748.187 146.038L748.95 166.458C748.98 167.25 748.853 168.039 748.577 168.782C748.302 169.525 747.882 170.206 747.344 170.787C746.805 171.368 746.157 171.837 745.437 172.167C744.717 172.497 743.939 172.683 743.147 172.712L655.089 176.004C655.013 176.007 654.937 176.009 654.861 176.009Z" fill="#2F2E41"/>
<path d="M758.05 364.241H744.353C742.753 364.239 741.22 363.603 740.089 362.472C738.958 361.341 738.322 359.807 738.32 358.208V244.019C738.322 242.419 738.958 240.886 740.089 239.755C741.22 238.623 742.753 237.987 744.353 237.985H758.05C759.65 237.987 761.183 238.623 762.314 239.755C763.445 240.886 764.081 242.419 764.082 244.019V358.208C764.081 359.807 763.445 361.341 762.314 362.472C761.183 363.603 759.65 364.239 758.05 364.241Z" fill="#2F2E41"/>
<path d="M697.251 303.883L685.538 296.781C684.171 295.95 683.189 294.611 682.809 293.057C682.428 291.504 682.678 289.863 683.506 288.494L742.682 190.843C743.512 189.476 744.851 188.494 746.404 188.113C747.957 187.732 749.598 187.983 750.967 188.811L762.68 195.912C764.047 196.743 765.029 198.082 765.41 199.636C765.79 201.19 765.54 202.831 764.712 204.2L705.537 301.85C704.706 303.217 703.367 304.199 701.814 304.58C700.261 304.961 698.62 304.71 697.251 303.883Z" fill="#2F2E41"/>
<path d="M737.246 118.818C763.385 118.818 784.576 97.6225 784.576 71.4768C784.576 45.331 763.385 24.1357 737.246 24.1357C711.106 24.1357 689.916 45.331 689.916 71.4768C689.916 97.6225 711.106 118.818 737.246 118.818Z" fill="#FF6F00"/>
<path d="M711.628 87.6402C710.105 87.1398 708.708 86.3192 707.529 85.2335C706.747 84.4583 706.145 83.5217 705.764 82.4892C705.383 81.4567 705.232 80.3534 705.322 79.2565C705.372 78.4749 705.601 77.7154 705.993 77.0373C706.384 76.3592 706.928 75.7809 707.58 75.3475C709.272 74.2615 711.536 74.2583 713.841 75.2743L713.754 56.793L715.609 56.7842L715.712 78.5109L714.282 77.6111C712.624 76.5694 710.255 75.8362 708.582 76.9102C708.168 77.194 707.826 77.5693 707.581 78.0071C707.336 78.4448 707.195 78.9331 707.17 79.4341C707.107 80.2512 707.221 81.0722 707.505 81.8412C707.788 82.6102 708.233 83.3092 708.81 83.8906C710.86 85.8488 713.85 86.4611 717.26 87.0084L716.966 88.8412C715.154 88.6012 713.368 88.1992 711.628 87.6402Z" fill="#2F2E41"/>
<path d="M694.62 55.8589L694.377 57.6992L704.287 59.0083L704.53 57.168L694.62 55.8589Z" fill="#2F2E41"/>
<path d="M725.901 59.9907L725.658 61.8311L735.569 63.1402L735.812 61.2999L725.901 59.9907Z" fill="#2F2E41"/>
<path d="M776.768 274.656H696.957C694.865 274.654 692.86 273.822 691.381 272.342C689.903 270.863 689.071 268.858 689.068 266.766L705.777 138.607C705.79 136.524 706.627 134.532 708.104 133.065C709.582 131.598 711.579 130.775 713.661 130.776H741.985C753.298 130.789 764.144 135.29 772.144 143.292C780.144 151.293 784.643 162.142 784.656 173.458V266.766C784.654 268.858 783.822 270.863 782.343 272.342C780.864 273.822 778.859 274.654 776.768 274.656Z" fill="#2F2E41"/>
<path d="M845.433 224.157C845.926 225.212 846.104 226.387 845.944 227.541C845.785 228.695 845.296 229.778 844.535 230.661L835.58 241.028C835.063 241.628 834.432 242.119 833.724 242.475C833.016 242.831 832.245 243.043 831.455 243.101C830.665 243.159 829.871 243.06 829.119 242.811C828.367 242.562 827.672 242.167 827.072 241.649L745.868 171.476C744.588 170.37 743.538 169.022 742.778 167.51C742.018 165.998 741.564 164.351 741.441 162.664C741.317 160.976 741.527 159.281 742.059 157.674C742.591 156.068 743.434 154.582 744.54 153.302C745.646 152.021 746.993 150.971 748.505 150.212C750.017 149.452 751.663 148.998 753.351 148.875C755.038 148.752 756.733 148.963 758.339 149.495C759.945 150.027 761.43 150.871 762.71 151.977L843.914 222.15C844.557 222.704 845.074 223.388 845.433 224.157Z" fill="#FF6F00"/>
<path d="M827.51 200.998C828.003 202.054 828.18 203.229 828.021 204.383C827.861 205.537 827.372 206.62 826.612 207.502L811.316 225.21C810.269 226.419 808.785 227.164 807.19 227.28C805.595 227.397 804.019 226.876 802.808 225.831L736.128 168.209C735.528 167.691 735.037 167.06 734.681 166.352C734.325 165.644 734.113 164.872 734.055 164.082C733.997 163.292 734.096 162.498 734.345 161.746C734.594 160.994 734.989 160.298 735.507 159.698L750.802 141.99C751.32 141.391 751.951 140.899 752.659 140.543C753.366 140.188 754.137 139.975 754.927 139.917C755.718 139.86 756.511 139.958 757.263 140.207C758.015 140.457 758.711 140.851 759.31 141.37L825.991 198.992C826.633 199.546 827.151 200.23 827.51 200.998Z" fill="#2F2E41"/>
<path d="M738.131 43.3984C731.804 38.1613 723.346 43.1145 716.191 42.4115C709.346 41.7389 703.836 35.7132 702.335 29.229C700.583 21.6641 704.38 13.9797 710.1 9.1336C716.364 3.82599 724.774 2.17664 732.789 2.98429C741.975 3.90994 750.438 8.02386 758.058 13.0496C765.409 17.7462 772.193 23.2778 778.273 29.5341C783.721 35.3276 788.376 42.2683 789.97 50.1733C791.419 57.3573 790.569 65.3648 786.425 71.5528C784.225 74.7258 781.245 77.2782 777.771 78.9638C774.152 80.8276 770.279 82.1845 766.778 84.2806C761.485 87.45 756.404 93.9094 758.206 100.497C758.593 101.936 759.328 103.258 760.346 104.346C761.569 105.653 763.695 103.855 762.469 102.545C760.316 100.243 760.34 97.1187 761.41 94.3016C762.687 91.1259 765.004 88.478 767.982 86.7918C771.647 84.6026 775.712 83.2171 779.473 81.215C783.074 79.3829 786.179 76.7077 788.525 73.417C792.95 67.0131 794.153 58.7655 792.978 51.1793C791.706 42.9698 787.336 35.5709 781.917 29.404C776.02 22.6927 768.825 17.0535 761.489 12.0042C753.616 6.58617 744.947 2.04388 735.42 0.522473C727.162 -0.796356 718.258 0.281425 711.146 4.90444C704.507 9.21971 699.493 16.5211 699.133 24.5801C699.019 28.246 699.883 31.8761 701.637 35.097C703.391 38.3178 705.971 41.013 709.112 42.9051C712.334 44.7511 716.053 45.5388 719.746 45.1572C723.696 44.8289 727.63 43.5425 731.616 43.8031C733.419 43.8783 735.148 44.5392 736.542 45.6857C737.924 46.8299 739.502 44.5332 738.131 43.3984Z" fill="#2F2E41"/>
<path d="M682.477 290.143C682.494 290.039 682.514 289.934 682.537 289.83C682.702 289.054 683.019 288.32 683.47 287.668C683.921 287.016 684.496 286.46 685.164 286.032L696.674 278.606C698.019 277.741 699.652 277.444 701.216 277.781C702.779 278.119 704.145 279.063 705.013 280.406L740.521 335.47C741.388 336.815 741.685 338.449 741.348 340.013C741.01 341.577 740.066 342.943 738.721 343.811L727.21 351.237C725.866 352.102 724.232 352.399 722.669 352.061C721.106 351.724 719.74 350.78 718.872 349.437L683.364 294.373C682.552 293.123 682.236 291.614 682.477 290.143Z" fill="#2F2E41"/>
</g>
<defs>
<clipPath id="clip0_1750_2308">
<rect width="846" height="419" fill="white"/>
</clipPath>
</defs>
</svg>
